<svg preserveAspectRatio="none" overflow="visible" style="display: block;" width="257.606" height="38.9463" viewBox="0 0 257.606 38.9463" fill="none" xmlns="http://www.w3.org/2000/svg">
<g id="Group">
<path id="Vector" d="M65.3854 26.9101C65.5997 30.8434 68.4122 32.6992 71.6029 32.6992C75.1078 32.6992 77.021 30.8933 77.021 28.6591C77.021 25.6324 74.1514 24.1976 69.8469 21.8562C62.2518 17.5018 59.6462 14.7893 59.6462 9.7425C59.6462 4.01757 64.5859 0.084375 70.8035 0.084375C77.6562 0.084375 82.1747 5.18112 82.3318 11.6127H75.8003C75.6432 8.26487 73.6731 6.24472 70.8035 6.24472C68.3051 6.24472 66.1778 7.72949 66.1778 10.0137C66.1778 12.8833 68.355 13.9969 72.1811 16.017C79.3552 19.8932 83.5525 23.134 83.5525 28.8732C83.5525 35.2477 78.1845 38.8597 71.5958 38.8597C63.6794 38.8597 59.0038 33.1205 58.8469 26.9029H65.3784L65.3854 26.9101Z" fill="white"/>
<path id="Vector_2" d="M118.617 0.615625L104.754 23.194V38.3344H98.2229V23.194L84.3531 0.615625H91.7413L101.464 16.4484L111.236 0.615625H118.617Z" fill="white"/>
<path id="Vector_3" d="M125.742 26.9119C125.956 30.845 128.768 32.701 131.959 32.701C135.464 32.701 137.377 30.8951 137.377 28.6607C137.377 25.6341 134.508 24.1993 130.203 21.858C122.608 17.5036 120.003 14.7911 120.003 9.74428C120.003 4.00508 124.942 0.071875 131.16 0.071875C138.013 0.071875 142.531 5.16863 142.688 11.6002H136.157C136 8.25237 134.029 6.23223 131.16 6.23223C128.661 6.23223 126.534 7.717 126.534 10.0013C126.534 12.8709 128.711 13.9844 132.538 16.0045C139.711 19.8807 143.909 23.1215 143.909 28.8607C143.909 35.2351 138.541 38.8471 131.952 38.8471C124.036 38.8471 119.36 33.1079 119.203 26.8905H125.735L125.742 26.9119Z" fill="white"/>
<path id="Vector_4" d="M148.956 11.5625H155.488V38.3311H148.956V11.5625Z" fill="white"/>
<path id="Vector_5" d="M192.039 19.475C192.039 30.0468 184.601 38.3344 173.873 38.3344H160.909V0.615625H173.873C184.601 0.615625 192.039 8.9032 192.039 19.475ZM185.508 19.475C185.508 11.2945 180.41 6.77598 173.873 6.77598H167.441V32.174H173.873C180.404 32.174 185.508 27.6555 185.508 19.475Z" fill="white"/>
<path id="Vector_6" d="M203.144 6.78311V16.0272H214.622V22.1876H203.144V32.174H217.756V38.3344H196.612V0.615625H217.756V6.78311H203.144Z" fill="white"/>
<path id="Vector_7" d="M243.366 19.475L257.606 38.3344H249.691L239.44 24.736L229.133 38.3344H221.216L235.457 19.475L221.209 0.615625H229.125L239.433 14.2141L249.683 0.615625H257.6L243.358 19.475H243.366Z" fill="white"/>
<path id="Vector_8" d="M155.488 0.615625H148.956V8.09657H155.488V0.615625Z" fill="#EC2526"/>
<path id="Vector_9" d="M20.6052 13.2697C21.918 13.2697 22.9824 12.2055 22.9824 10.8927C22.9824 9.57987 21.918 8.51562 20.6052 8.51562C19.2924 8.51562 18.2281 9.57987 18.2281 10.8927C18.2281 12.2055 19.2924 13.2697 20.6052 13.2697Z" fill="white"/>
<path id="Vector_10" d="M20.6052 21.7791C21.918 21.7791 22.9824 20.7149 22.9824 19.4021C22.9824 18.0893 21.918 17.025 20.6052 17.025C19.2924 17.025 18.2281 18.0893 18.2281 19.4021C18.2281 20.7149 19.2924 21.7791 20.6052 21.7791Z" fill="white"/>
<path id="Vector_11" d="M20.6052 30.2949C21.918 30.2949 22.9824 29.2305 22.9824 27.9177C22.9824 26.6049 21.918 25.5406 20.6052 25.5406C19.2924 25.5406 18.2281 26.6049 18.2281 27.9177C18.2281 29.2305 19.2924 30.2949 20.6052 30.2949Z" fill="white"/>
<path id="Vector_12" d="M20.6052 4.89786C21.918 4.89786 22.9824 3.83362 22.9824 2.5208C22.9824 1.20799 21.918 0.14375 20.6052 0.14375C19.2924 0.14375 18.2281 1.20799 18.2281 2.5208C18.2281 3.83362 19.2924 4.89786 20.6052 4.89786Z" fill="#EC2526"/>
<path id="Vector_13" d="M20.6052 38.8041C21.918 38.8041 22.9824 37.7399 22.9824 36.4271C22.9824 35.1143 21.918 34.05 20.6052 34.05C19.2924 34.05 18.2281 35.1143 18.2281 36.4271C18.2281 37.7399 19.2924 38.8041 20.6052 38.8041Z" fill="#EC2526"/>
<path id="Vector_14" d="M2.37706 13.4135C3.68987 13.4135 4.75411 12.3492 4.75411 11.0364C4.75411 9.72362 3.68987 8.65938 2.37706 8.65938C1.06424 8.65938 0 9.72362 0 11.0364C0 12.3492 1.06424 13.4135 2.37706 13.4135Z" fill="#EC2526"/>
<path id="Vector_15" d="M2.37706 5.04786C3.68987 5.04786 4.75411 3.98362 4.75411 2.6708C4.75411 1.35799 3.68987 0.29375 2.37706 0.29375C1.06424 0.29375 0 1.35799 0 2.6708C0 3.98362 1.06424 5.04786 2.37706 5.04786Z" fill="#EC2526"/>
<path id="Vector_16" d="M2.37706 21.923C3.68987 21.923 4.75411 20.8587 4.75411 19.5459C4.75411 18.2331 3.68987 17.1688 2.37706 17.1688C1.06424 17.1688 0 18.2331 0 19.5459C0 20.8587 1.06424 21.923 2.37706 21.923Z" fill="#EC2526"/>
<path id="Vector_17" d="M2.37706 30.4386C3.68987 30.4386 4.75411 29.3743 4.75411 28.0615C4.75411 26.7487 3.68987 25.6844 2.37706 25.6844C1.06424 25.6844 0 26.7487 0 28.0615C0 29.3743 1.06424 30.4386 2.37706 30.4386Z" fill="#EC2526"/>
<path id="Vector_18" d="M2.37706 38.9463C3.68987 38.9463 4.75411 37.882 4.75411 36.5692C4.75411 35.2564 3.68987 34.1922 2.37706 34.1922C1.06424 34.1922 0 35.2564 0 36.5692C0 37.882 1.06424 38.9463 2.37706 38.9463Z" fill="#EC2526"/>
<path id="Vector_19" d="M11.4896 13.3416C12.8024 13.3416 13.8666 12.2774 13.8666 10.9646C13.8666 9.65174 12.8024 8.5875 11.4896 8.5875C10.1767 8.5875 9.1125 9.65174 9.1125 10.9646C9.1125 12.2774 10.1767 13.3416 11.4896 13.3416Z" fill="#EC2526"/>
<path id="Vector_20" d="M11.4896 4.97599C12.8024 4.97599 13.8666 3.91173 13.8666 2.59893C13.8666 1.28612 12.8024 0.221875 11.4896 0.221875C10.1767 0.221875 9.1125 1.28612 9.1125 2.59893C9.1125 3.91173 10.1767 4.97599 11.4896 4.97599Z" fill="#EC2526"/>
<path id="Vector_21" d="M11.4896 21.851C12.8024 21.851 13.8666 20.7866 13.8666 19.4738C13.8666 18.161 12.8024 17.0969 11.4896 17.0969C10.1767 17.0969 9.1125 18.161 9.1125 19.4738C9.1125 20.7866 10.1767 21.851 11.4896 21.851Z" fill="#EC2526"/>
<path id="Vector_22" d="M11.4896 30.3666C12.8024 30.3666 13.8666 29.3023 13.8666 27.9895C13.8666 26.6767 12.8024 25.6125 11.4896 25.6125C10.1767 25.6125 9.1125 26.6767 9.1125 27.9895C9.1125 29.3023 10.1767 30.3666 11.4896 30.3666Z" fill="#EC2526"/>
<path id="Vector_23" d="M11.4896 38.876C12.8024 38.876 13.8666 37.8118 13.8666 36.4988C13.8666 35.186 12.8024 34.1219 11.4896 34.1219C10.1767 34.1219 9.1125 35.186 9.1125 36.4988C9.1125 37.8118 10.1767 38.876 11.4896 38.876Z" fill="#EC2526"/>
<path id="Vector_24" d="M29.7334 13.1979C31.0462 13.1979 32.1103 12.1336 32.1103 10.8208C32.1103 9.50799 31.0462 8.44375 29.7334 8.44375C28.4204 8.44375 27.3562 9.50799 27.3562 10.8208C27.3562 12.1336 28.4204 13.1979 29.7334 13.1979Z" fill="#EC2526"/>
<path id="Vector_25" d="M29.7334 4.82599C31.0462 4.82599 32.1103 3.76173 32.1103 2.44893C32.1103 1.13612 31.0462 0.071875 29.7334 0.071875C28.4204 0.071875 27.3562 1.13612 27.3562 2.44893C27.3562 3.76173 28.4204 4.82599 29.7334 4.82599Z" fill="#EC2526"/>
<path id="Vector_26" d="M29.7334 21.7074C31.0462 21.7074 32.1103 20.643 32.1103 19.3302C32.1103 18.0174 31.0462 16.9531 29.7334 16.9531C28.4204 16.9531 27.3562 18.0174 27.3562 19.3302C27.3562 20.643 28.4204 21.7074 29.7334 21.7074Z" fill="#EC2526"/>
<path id="Vector_27" d="M29.7334 30.2228C31.0462 30.2228 32.1103 29.1585 32.1103 27.8457C32.1103 26.5329 31.0462 25.4688 29.7334 25.4688C28.4204 25.4688 27.3562 26.5329 27.3562 27.8457C27.3562 29.1585 28.4204 30.2228 29.7334 30.2228Z" fill="#EC2526"/>
<path id="Vector_28" d="M29.7334 38.7322C31.0462 38.7322 32.1103 37.6679 32.1103 36.3551C32.1103 35.0423 31.0462 33.9781 29.7334 33.9781C28.4204 33.9781 27.3562 35.0423 27.3562 36.3551C27.3562 37.6679 28.4204 38.7322 29.7334 38.7322Z" fill="#EC2526"/>
<path id="Vector_29" d="M38.8457 13.1197C40.1585 13.1197 41.2228 12.0555 41.2228 10.7427C41.2228 9.42987 40.1585 8.36563 38.8457 8.36563C37.5329 8.36563 36.4688 9.42987 36.4688 10.7427C36.4688 12.0555 37.5329 13.1197 38.8457 13.1197Z" fill="#EC2526"/>
<path id="Vector_30" d="M38.8457 4.75411C40.1585 4.75411 41.2228 3.68987 41.2228 2.37706C41.2228 1.06424 40.1585 0 38.8457 0C37.5329 0 36.4688 1.06424 36.4688 2.37706C36.4688 3.68987 37.5329 4.75411 38.8457 4.75411Z" fill="#EC2526"/>
<path id="Vector_31" d="M38.8457 21.6353C40.1585 21.6353 41.2228 20.571 41.2228 19.2582C41.2228 17.9454 40.1585 16.8813 38.8457 16.8813C37.5329 16.8813 36.4688 17.9454 36.4688 19.2582C36.4688 20.571 37.5329 21.6353 38.8457 21.6353Z" fill="#EC2526"/>
<path id="Vector_32" d="M38.8457 30.1447C40.1585 30.1447 41.2228 29.0805 41.2228 27.7676C41.2228 26.4548 40.1585 25.3906 38.8457 25.3906C37.5329 25.3906 36.4688 26.4548 36.4688 27.7676C36.4688 29.0805 37.5329 30.1447 38.8457 30.1447Z" fill="#EC2526"/>
<path id="Vector_33" d="M38.8457 38.6603C40.1585 38.6603 41.2228 37.5962 41.2228 36.2834C41.2228 34.9704 40.1585 33.9062 38.8457 33.9062C37.5329 33.9062 36.4688 34.9704 36.4688 36.2834C36.4688 37.5962 37.5329 38.6603 38.8457 38.6603Z" fill="#EC2526"/>
</g>
</svg>
